<svg width="163" height="66" viewBox="0 0 163 66" fill="none" xmlns="http://www.w3.org/2000/svg">
<path fill-rule="evenodd" clip-rule="evenodd" d="M0 40.4968V35.1019L17.3758 28.0255V20.5287L0 27.3248L0.0700637 9.31847L22.7006 0V5.88535L5.25478 12.5414V19.758L22.7006 13.1019V31.1783L0 40.4968ZM24.0318 5.88535V0L46.3121 8.61783V14.5732L36.7834 10.7197V36.3631L31.5987 34.6115V8.61783L24.0318 5.88535ZM10.2293 63.758L5.25478 66V47.6433L0 45.8917V42.3185L23.4713 32.9299L46.3121 42.3185V45.8917L22.7006 55.4204L10.2293 49.8853V63.758ZM10.02 43.8587C10.4685 43.6906 19.2217 40.1921 23.5423 38.4638L36.9245 43.8587L23.5423 49.7441L10.02 43.8587Z" fill="black"/>
<path d="M58.1239 28.7854C55.988 28.7854 54.0909 28.0424 52.4326 26.5566L53.4077 25.4024C54.1506 26.079 54.8936 26.5765 55.6365 26.8949C56.3927 27.2133 57.2417 27.3725 58.1836 27.3725C59.1123 27.3725 59.8619 27.1536 60.4323 26.7158C61.0028 26.2647 61.288 25.681 61.288 24.9646C61.288 24.288 61.0359 23.7507 60.5318 23.3527C60.0277 22.9547 59.0725 22.6098 57.6662 22.3179C56.0079 21.9598 54.814 21.4755 54.0843 20.8653C53.3546 20.255 52.9898 19.3861 52.9898 18.2584C52.9898 17.1573 53.421 16.2485 54.2833 15.5321C55.1456 14.8157 56.2401 14.4576 57.5667 14.4576C59.4108 14.4576 61.0426 15.028 62.4621 16.1689L61.5467 17.3828C60.3129 16.3746 58.973 15.8704 57.5269 15.8704C56.6381 15.8704 55.9217 16.0893 55.3778 16.5271C54.8339 16.9517 54.5619 17.4956 54.5619 18.1589C54.5619 18.8488 54.8206 19.3927 55.338 19.7907C55.8686 20.1887 56.8703 20.5469 58.3428 20.8653C59.9215 21.2102 61.0691 21.6944 61.7855 22.3179C62.5151 22.9282 62.88 23.7706 62.88 24.8452C62.88 26.0259 62.4355 26.9811 61.5467 27.7108C60.6578 28.4272 59.5169 28.7854 58.1239 28.7854Z" fill="black"/>
<path d="M66.0768 28.5864V14.6565H67.6688L72.7432 22.2582L77.8177 14.6565H79.4097V28.5864H77.8376V17.3032L72.7631 24.7656H72.6835L67.6091 17.3231V28.5864H66.0768Z" fill="black"/>
<path d="M82.1591 28.5864L88.5071 14.557H89.9797L96.3277 28.5864H94.6362L93.0044 24.9049H85.4226L83.771 28.5864H82.1591ZM86.0395 23.492H92.3875L89.2235 16.3878L86.0395 23.492Z" fill="black"/>
<path d="M99.0746 28.5864V14.6565H105.064C106.776 14.6565 108.096 15.1209 109.025 16.0495C109.741 16.7659 110.099 17.6946 110.099 18.8355C110.099 19.9499 109.754 20.852 109.064 21.5419C108.374 22.2317 107.459 22.6828 106.318 22.895L110.597 28.5864H108.666L104.627 23.1736H100.647V28.5864H99.0746ZM100.647 21.7608H104.925C105.986 21.7608 106.849 21.5021 107.512 20.9847C108.175 20.4673 108.507 19.7575 108.507 18.8554C108.507 17.9931 108.189 17.3231 107.552 16.8455C106.928 16.3547 106.059 16.1092 104.945 16.1092H100.647V21.7608Z" fill="black"/>
<path d="M116.699 28.5864V16.9251H112.281V14.6565H123.584V16.9251H119.167V28.5864H116.699Z" fill="black"/>
<path d="M126.18 28.5864V14.6565H136.508V16.8455H128.628V20.4673H135.612V22.6562H128.628V26.3974H136.607V28.5864H126.18Z" fill="black"/>
<path d="M144.387 28.7854C142.171 28.7854 140.234 28.0424 138.576 26.5566L140.048 24.8054C141.441 26.0127 142.907 26.6163 144.446 26.6163C145.203 26.6163 145.8 26.4571 146.237 26.1387C146.688 25.807 146.914 25.3692 146.914 24.8253C146.914 24.3079 146.702 23.8967 146.277 23.5915C145.853 23.2731 145.017 22.968 143.77 22.6761C142.151 22.2914 140.971 21.8072 140.228 21.2235C139.498 20.6265 139.133 19.7177 139.133 18.4972C139.133 17.3032 139.578 16.3348 140.466 15.5918C141.355 14.8356 142.496 14.4576 143.889 14.4576C145.8 14.4576 147.484 15.0413 148.944 16.2087L147.63 18.0594C146.343 17.1042 145.083 16.6266 143.849 16.6266C143.146 16.6266 142.589 16.7858 142.178 17.1042C141.78 17.4226 141.581 17.8272 141.581 18.3181C141.581 18.862 141.8 19.2866 142.237 19.5917C142.689 19.8835 143.571 20.1887 144.884 20.5071C146.423 20.8785 147.551 21.376 148.267 21.9996C148.997 22.6231 149.362 23.4987 149.362 24.6263C149.362 25.9132 148.904 26.9281 147.988 27.671C147.073 28.4139 145.872 28.7854 144.387 28.7854Z" fill="black"/>
<path d="M155.371 28.5864V16.9251H150.954V14.6565H162.257V16.9251H157.839V28.5864H155.371Z" fill="black"/>
<path d="M53.348 51.3806V37.4508H58.5617C60.1537 37.4508 61.4207 37.8488 62.3626 38.6448C63.3045 39.4408 63.7755 40.5286 63.7755 41.9083C63.7755 43.3544 63.2514 44.4754 62.2034 45.2714C61.1686 46.0674 59.8685 46.4654 58.303 46.4654H54.9201V51.3806H53.348ZM54.9201 45.0326H58.3627C59.5169 45.0326 60.4389 44.754 61.1288 44.1968C61.8319 43.6263 62.1835 42.8702 62.1835 41.9282C62.1835 40.9598 61.8452 40.2169 61.1686 39.6995C60.5053 39.1688 59.5965 38.9035 58.4423 38.9035H54.9201V45.0326Z" fill="black"/>
<path d="M66.6404 51.3806V37.4508H72.6302C74.3416 37.4508 75.6616 37.9151 76.5903 38.8438C77.3067 39.5602 77.6649 40.4888 77.6649 41.6297C77.6649 42.7441 77.3199 43.6462 76.6301 44.3361C75.9402 45.026 75.0248 45.477 73.8839 45.6893L78.1623 51.3806H76.2321L72.1924 45.9679H68.2125V51.3806H66.6404ZM68.2125 44.555H72.4909C73.5522 44.555 74.4146 44.2963 75.0779 43.7789C75.7412 43.2615 76.0729 42.5518 76.0729 41.6496C76.0729 40.7873 75.7545 40.1174 75.1177 39.6398C74.4942 39.1489 73.6252 38.9035 72.5108 38.9035H68.2125V44.555Z" fill="black"/>
<path d="M81.0211 51.3806V37.4508H91.0903V38.8836H82.5931V43.6396H90.1948V45.0724H82.5931V49.9478H91.1898V51.3806H81.0211Z" fill="black"/>
<path d="M94.3523 51.3806V37.4508H99.5661C101.158 37.4508 102.425 37.8488 103.367 38.6448C104.309 39.4408 104.78 40.5286 104.78 41.9083C104.78 43.3544 104.256 44.4754 103.208 45.2714C102.173 46.0674 100.873 46.4654 99.3074 46.4654H95.9244V51.3806H94.3523ZM95.9244 45.0326H99.3671C100.521 45.0326 101.443 44.754 102.133 44.1968C102.836 43.6263 103.188 42.8702 103.188 41.9282C103.188 40.9598 102.85 40.2169 102.173 39.6995C101.51 39.1688 100.601 38.9035 99.4467 38.9035H95.9244V45.0326Z" fill="black"/>
</svg>
